<mxfile host="65bd71144e">
    <diagram name="Pagina-1" id="cASJgcRA1GZAY-W6Zr8W">
        <mxGraphModel dx="3501" dy="1636" grid="1" gridSize="10" guides="1" tooltips="1" connect="1" arrows="1" fold="1" page="1" pageScale="1" pageWidth="1169" pageHeight="827" background="none" math="0" shadow="0">
            <root>
                <mxCell id="0"/>
                <mxCell id="1" parent="0"/>
                <mxCell id="iPYovIgnLKDDGat7eZfa-45" style="edgeStyle=orthogonalEdgeStyle;rounded=1;orthogonalLoop=1;jettySize=auto;html=1;entryX=0.5;entryY=1;entryDx=0;entryDy=0;" parent="1" source="iPYovIgnLKDDGat7eZfa-1" target="iPYovIgnLKDDGat7eZfa-22" edge="1">
                    <mxGeometry relative="1" as="geometry"/>
                </mxCell>
                <mxCell id="iPYovIgnLKDDGat7eZfa-1" value="&lt;div&gt;Tecnico&lt;/div&gt;" style="rounded=1;whiteSpace=wrap;html=1;fillColor=#6a00ff;strokeColor=#3700CC;fontColor=#ffffff;" parent="1" vertex="1">
                    <mxGeometry x="530" y="460" width="120" height="60" as="geometry"/>
                </mxCell>
                <mxCell id="iPYovIgnLKDDGat7eZfa-47" style="edgeStyle=orthogonalEdgeStyle;rounded=1;orthogonalLoop=1;jettySize=auto;html=1;entryX=0.5;entryY=1;entryDx=0;entryDy=0;" parent="1" source="iPYovIgnLKDDGat7eZfa-3" target="iPYovIgnLKDDGat7eZfa-1" edge="1">
                    <mxGeometry relative="1" as="geometry"/>
                </mxCell>
                <mxCell id="iPYovIgnLKDDGat7eZfa-3" value="Tecnico del Suono" style="rounded=1;whiteSpace=wrap;html=1;fillColor=#6a00ff;strokeColor=#3700CC;fontColor=#ffffff;" parent="1" vertex="1">
                    <mxGeometry x="430" y="670" width="120" height="60" as="geometry"/>
                </mxCell>
                <mxCell id="iPYovIgnLKDDGat7eZfa-46" style="edgeStyle=orthogonalEdgeStyle;rounded=1;orthogonalLoop=1;jettySize=auto;html=1;entryX=0.5;entryY=1;entryDx=0;entryDy=0;" parent="1" source="iPYovIgnLKDDGat7eZfa-4" target="iPYovIgnLKDDGat7eZfa-1" edge="1">
                    <mxGeometry relative="1" as="geometry"/>
                </mxCell>
                <mxCell id="iPYovIgnLKDDGat7eZfa-4" value="&lt;div&gt;Fonico&lt;/div&gt;" style="rounded=1;whiteSpace=wrap;html=1;fillColor=#6a00ff;strokeColor=#3700CC;fontColor=#ffffff;" parent="1" vertex="1">
                    <mxGeometry x="626" y="670" width="120" height="60" as="geometry"/>
                </mxCell>
                <mxCell id="iPYovIgnLKDDGat7eZfa-5" value="Utente" style="rounded=1;whiteSpace=wrap;html=1;fillColor=#6a00ff;strokeColor=#3700CC;fontColor=#ffffff;" parent="1" vertex="1">
                    <mxGeometry x="100" y="110" width="120" height="60" as="geometry"/>
                </mxCell>
                <mxCell id="iPYovIgnLKDDGat7eZfa-127" style="edgeStyle=orthogonalEdgeStyle;rounded=1;orthogonalLoop=1;jettySize=auto;html=1;entryX=0.5;entryY=1;entryDx=0;entryDy=0;" parent="1" source="iPYovIgnLKDDGat7eZfa-7" target="iPYovIgnLKDDGat7eZfa-125" edge="1">
                    <mxGeometry relative="1" as="geometry"/>
                </mxCell>
                <mxCell id="iPYovIgnLKDDGat7eZfa-7" value="Musician" style="rounded=1;whiteSpace=wrap;html=1;fillColor=#6a00ff;strokeColor=#3700CC;fontColor=#ffffff;" parent="1" vertex="1">
                    <mxGeometry x="-397" y="620" width="120" height="60" as="geometry"/>
                </mxCell>
                <mxCell id="iPYovIgnLKDDGat7eZfa-44" style="edgeStyle=orthogonalEdgeStyle;rounded=1;orthogonalLoop=1;jettySize=auto;html=1;entryX=0.5;entryY=1;entryDx=0;entryDy=0;" parent="1" source="iPYovIgnLKDDGat7eZfa-20" target="iPYovIgnLKDDGat7eZfa-22" edge="1">
                    <mxGeometry relative="1" as="geometry"/>
                </mxCell>
                <mxCell id="iPYovIgnLKDDGat7eZfa-20" value="Studio Manager" style="rounded=1;whiteSpace=wrap;html=1;fillColor=#6a00ff;strokeColor=#3700CC;fontColor=#ffffff;" parent="1" vertex="1">
                    <mxGeometry x="746" y="460" width="120" height="60" as="geometry"/>
                </mxCell>
                <mxCell id="iPYovIgnLKDDGat7eZfa-41" style="edgeStyle=orthogonalEdgeStyle;rounded=1;orthogonalLoop=1;jettySize=auto;html=1;entryX=0.5;entryY=1;entryDx=0;entryDy=0;" parent="1" source="iPYovIgnLKDDGat7eZfa-22" target="iPYovIgnLKDDGat7eZfa-5" edge="1">
                    <mxGeometry relative="1" as="geometry">
                        <Array as="points">
                            <mxPoint x="580" y="260"/>
                            <mxPoint x="160" y="260"/>
                            <mxPoint x="160" y="170"/>
                        </Array>
                    </mxGeometry>
                </mxCell>
                <mxCell id="iPYovIgnLKDDGat7eZfa-22" value="Dipendente" style="rounded=1;whiteSpace=wrap;html=1;fillColor=#6a00ff;strokeColor=#3700CC;fontColor=#ffffff;" parent="1" vertex="1">
                    <mxGeometry x="636" y="300" width="120" height="60" as="geometry"/>
                </mxCell>
                <mxCell id="iPYovIgnLKDDGat7eZfa-116" style="edgeStyle=orthogonalEdgeStyle;rounded=1;orthogonalLoop=1;jettySize=auto;html=1;entryX=0.5;entryY=1;entryDx=0;entryDy=0;" parent="1" source="iPYovIgnLKDDGat7eZfa-23" target="iPYovIgnLKDDGat7eZfa-94" edge="1">
                    <mxGeometry relative="1" as="geometry">
                        <Array as="points">
                            <mxPoint x="-700" y="420"/>
                            <mxPoint x="-564" y="420"/>
                        </Array>
                    </mxGeometry>
                </mxCell>
                <mxCell id="iPYovIgnLKDDGat7eZfa-23" value="Producer" style="rounded=1;whiteSpace=wrap;html=1;fillColor=#6a00ff;strokeColor=#3700CC;fontColor=#ffffff;" parent="1" vertex="1">
                    <mxGeometry x="-760" y="460" width="120" height="60" as="geometry"/>
                </mxCell>
                <mxCell id="iPYovIgnLKDDGat7eZfa-105" style="edgeStyle=orthogonalEdgeStyle;rounded=1;orthogonalLoop=1;jettySize=auto;html=1;" parent="1" source="iPYovIgnLKDDGat7eZfa-58" edge="1">
                    <mxGeometry relative="1" as="geometry">
                        <mxPoint x="160" y="170" as="targetPoint"/>
                    </mxGeometry>
                </mxCell>
                <mxCell id="iPYovIgnLKDDGat7eZfa-145" style="edgeStyle=orthogonalEdgeStyle;rounded=1;orthogonalLoop=1;jettySize=auto;html=1;entryX=0.5;entryY=0;entryDx=0;entryDy=0;" parent="1" source="iPYovIgnLKDDGat7eZfa-58" target="iPYovIgnLKDDGat7eZfa-134" edge="1">
                    <mxGeometry relative="1" as="geometry"/>
                </mxCell>
                <mxCell id="iPYovIgnLKDDGat7eZfa-58" value="Cliente" style="rounded=1;whiteSpace=wrap;html=1;fillColor=#6a00ff;strokeColor=#3700CC;fontColor=#ffffff;" parent="1" vertex="1">
                    <mxGeometry x="100" y="300" width="120" height="60" as="geometry"/>
                </mxCell>
                <mxCell id="iPYovIgnLKDDGat7eZfa-72" value="VISTA 1" style="text;html=1;align=center;verticalAlign=middle;resizable=0;points=[];autosize=1;strokeColor=none;fillColor=none;rounded=1;" parent="1" vertex="1">
                    <mxGeometry x="876" y="475" width="60" height="30" as="geometry"/>
                </mxCell>
                <mxCell id="iPYovIgnLKDDGat7eZfa-74" value="VISTA 3" style="text;html=1;align=center;verticalAlign=middle;resizable=0;points=[];autosize=1;strokeColor=none;fillColor=none;rounded=1;" parent="1" vertex="1">
                    <mxGeometry x="460" y="475" width="60" height="30" as="geometry"/>
                </mxCell>
                <mxCell id="iPYovIgnLKDDGat7eZfa-106" style="edgeStyle=orthogonalEdgeStyle;rounded=1;orthogonalLoop=1;jettySize=auto;html=1;entryX=0.5;entryY=1;entryDx=0;entryDy=0;exitX=0.5;exitY=0;exitDx=0;exitDy=0;" parent="1" source="iPYovIgnLKDDGat7eZfa-94" target="iPYovIgnLKDDGat7eZfa-5" edge="1">
                    <mxGeometry relative="1" as="geometry">
                        <Array as="points">
                            <mxPoint x="-564" y="260"/>
                            <mxPoint x="160" y="260"/>
                        </Array>
                    </mxGeometry>
                </mxCell>
                <mxCell id="iPYovIgnLKDDGat7eZfa-94" value="Contatto" style="rounded=1;whiteSpace=wrap;html=1;fillColor=#6a00ff;strokeColor=#3700CC;fontColor=#ffffff;" parent="1" vertex="1">
                    <mxGeometry x="-624" y="320" width="120" height="60" as="geometry"/>
                </mxCell>
                <mxCell id="iPYovIgnLKDDGat7eZfa-128" style="edgeStyle=orthogonalEdgeStyle;rounded=1;orthogonalLoop=1;jettySize=auto;html=1;entryX=0.5;entryY=1;entryDx=0;entryDy=0;" parent="1" source="iPYovIgnLKDDGat7eZfa-96" target="iPYovIgnLKDDGat7eZfa-125" edge="1">
                    <mxGeometry relative="1" as="geometry"/>
                </mxCell>
                <mxCell id="iPYovIgnLKDDGat7eZfa-96" value="Vocalist" style="rounded=1;whiteSpace=wrap;html=1;fillColor=#6a00ff;strokeColor=#3700CC;fontColor=#ffffff;" parent="1" vertex="1">
                    <mxGeometry x="-624" y="620" width="120" height="60" as="geometry"/>
                </mxCell>
                <mxCell id="iPYovIgnLKDDGat7eZfa-126" style="edgeStyle=orthogonalEdgeStyle;rounded=1;orthogonalLoop=1;jettySize=auto;html=1;entryX=0.5;entryY=1;entryDx=0;entryDy=0;" parent="1" source="iPYovIgnLKDDGat7eZfa-125" target="iPYovIgnLKDDGat7eZfa-94" edge="1">
                    <mxGeometry relative="1" as="geometry">
                        <Array as="points">
                            <mxPoint x="-444" y="420"/>
                            <mxPoint x="-564" y="420"/>
                        </Array>
                    </mxGeometry>
                </mxCell>
                <mxCell id="iPYovIgnLKDDGat7eZfa-125" value="Session Artist" style="rounded=1;whiteSpace=wrap;html=1;fillColor=#6a00ff;strokeColor=#3700CC;fontColor=#ffffff;" parent="1" vertex="1">
                    <mxGeometry x="-504" y="460" width="120" height="60" as="geometry"/>
                </mxCell>
                <mxCell id="zni9r8m3CKPHGTrBn69Q-5" style="edgeStyle=orthogonalEdgeStyle;rounded=1;orthogonalLoop=1;jettySize=auto;html=1;entryX=0;entryY=0.25;entryDx=0;entryDy=0;" parent="1" source="iPYovIgnLKDDGat7eZfa-131" target="iPYovIgnLKDDGat7eZfa-134" edge="1">
                    <mxGeometry relative="1" as="geometry"/>
                </mxCell>
                <mxCell id="iPYovIgnLKDDGat7eZfa-131" value="Musician" style="rounded=1;whiteSpace=wrap;html=1;fillColor=#6a00ff;strokeColor=#3700CC;fontColor=#ffffff;" parent="1" vertex="1">
                    <mxGeometry x="-200" y="370" width="120" height="60" as="geometry"/>
                </mxCell>
                <mxCell id="zni9r8m3CKPHGTrBn69Q-9" style="edgeStyle=orthogonalEdgeStyle;rounded=1;orthogonalLoop=1;jettySize=auto;html=1;exitX=0.5;exitY=1;exitDx=0;exitDy=0;entryX=0.5;entryY=0;entryDx=0;entryDy=0;strokeColor=default;endArrow=none;endFill=0;" parent="1" source="iPYovIgnLKDDGat7eZfa-134" target="iPYovIgnLKDDGat7eZfa-142" edge="1">
                    <mxGeometry relative="1" as="geometry"/>
                </mxCell>
                <mxCell id="zni9r8m3CKPHGTrBn69Q-11" style="edgeStyle=orthogonalEdgeStyle;rounded=1;orthogonalLoop=1;jettySize=auto;html=1;entryX=0.5;entryY=0;entryDx=0;entryDy=0;endArrow=none;endFill=0;" parent="1" source="iPYovIgnLKDDGat7eZfa-134" target="iPYovIgnLKDDGat7eZfa-137" edge="1">
                    <mxGeometry relative="1" as="geometry"/>
                </mxCell>
                <mxCell id="iPYovIgnLKDDGat7eZfa-134" value="Artista" style="rounded=1;whiteSpace=wrap;html=1;fillColor=#6a00ff;strokeColor=#3700CC;fontColor=#ffffff;" parent="1" vertex="1">
                    <mxGeometry x="100" y="415" width="120" height="60" as="geometry"/>
                </mxCell>
                <mxCell id="iPYovIgnLKDDGat7eZfa-136" value="Band" style="rounded=1;whiteSpace=wrap;html=1;fillColor=#6a00ff;strokeColor=#3700CC;fontColor=#ffffff;" parent="1" vertex="1">
                    <mxGeometry x="100" y="690" width="120" height="60" as="geometry"/>
                </mxCell>
                <mxCell id="iPYovIgnLKDDGat7eZfa-139" style="edgeStyle=orthogonalEdgeStyle;rounded=1;orthogonalLoop=1;jettySize=auto;html=1;entryX=1;entryY=0.5;entryDx=0;entryDy=0;" parent="1" source="iPYovIgnLKDDGat7eZfa-137" target="iPYovIgnLKDDGat7eZfa-136" edge="1">
                    <mxGeometry relative="1" as="geometry"/>
                </mxCell>
                <mxCell id="iPYovIgnLKDDGat7eZfa-137" value="Appartenenza Corrente" style="shape=rhombus;double=1;perimeter=rhombusPerimeter;whiteSpace=wrap;html=1;align=center;rounded=1;fillColor=#0050ef;fontColor=#ffffff;strokeColor=#001DBC;" parent="1" vertex="1">
                    <mxGeometry x="180" y="580" width="120" height="60" as="geometry"/>
                </mxCell>
                <mxCell id="iPYovIgnLKDDGat7eZfa-141" style="edgeStyle=orthogonalEdgeStyle;rounded=1;orthogonalLoop=1;jettySize=auto;html=1;entryX=0;entryY=0.5;entryDx=0;entryDy=0;" parent="1" source="iPYovIgnLKDDGat7eZfa-142" target="iPYovIgnLKDDGat7eZfa-136" edge="1">
                    <mxGeometry relative="1" as="geometry">
                        <mxPoint x="80" y="710" as="targetPoint"/>
                    </mxGeometry>
                </mxCell>
                <mxCell id="iPYovIgnLKDDGat7eZfa-142" value="Appartenenza Passata" style="shape=rhombus;double=1;perimeter=rhombusPerimeter;whiteSpace=wrap;html=1;align=center;rounded=1;fillColor=#0050ef;fontColor=#ffffff;strokeColor=#001DBC;" parent="1" vertex="1">
                    <mxGeometry x="20" y="580" width="120" height="60" as="geometry"/>
                </mxCell>
                <mxCell id="zni9r8m3CKPHGTrBn69Q-6" style="edgeStyle=orthogonalEdgeStyle;rounded=1;orthogonalLoop=1;jettySize=auto;html=1;entryX=0;entryY=0.75;entryDx=0;entryDy=0;" parent="1" source="zni9r8m3CKPHGTrBn69Q-2" target="iPYovIgnLKDDGat7eZfa-134" edge="1">
                    <mxGeometry relative="1" as="geometry"/>
                </mxCell>
                <mxCell id="zni9r8m3CKPHGTrBn69Q-2" value="Vocalist" style="rounded=1;whiteSpace=wrap;html=1;fillColor=#6a00ff;strokeColor=#3700CC;fontColor=#ffffff;" parent="1" vertex="1">
                    <mxGeometry x="-200" y="460" width="120" height="60" as="geometry"/>
                </mxCell>
                <mxCell id="196" style="edgeStyle=none;html=1;startArrow=none;startFill=0;endArrow=none;endFill=0;" parent="1" source="179" edge="1">
                    <mxGeometry relative="1" as="geometry">
                        <mxPoint x="-630.5000000000002" y="1170" as="targetPoint"/>
                    </mxGeometry>
                </mxCell>
                <mxCell id="373" value="" style="edgeStyle=none;html=1;endArrow=none;endFill=0;" parent="1" source="179" target="372" edge="1">
                    <mxGeometry relative="1" as="geometry"/>
                </mxCell>
                <mxCell id="376" value="" style="edgeStyle=none;html=1;endArrow=none;endFill=0;" parent="1" source="179" target="375" edge="1">
                    <mxGeometry relative="1" as="geometry"/>
                </mxCell>
                <mxCell id="381" value="" style="edgeStyle=none;html=1;endArrow=none;endFill=0;" parent="1" source="179" target="380" edge="1">
                    <mxGeometry relative="1" as="geometry"/>
                </mxCell>
                <mxCell id="179" value="Artist" style="rounded=1;whiteSpace=wrap;html=1;fillColor=#6a00ff;strokeColor=#3700CC;" parent="1" vertex="1">
                    <mxGeometry x="-690.5" y="1070" width="120" height="60" as="geometry"/>
                </mxCell>
                <mxCell id="193" style="edgeStyle=none;html=1;startArrow=none;startFill=0;endArrow=none;endFill=0;entryX=0.5;entryY=0;entryDx=0;entryDy=0;" parent="1" source="180" target="181" edge="1">
                    <mxGeometry relative="1" as="geometry">
                        <mxPoint x="-430.5" y="1170" as="targetPoint"/>
                        <Array as="points">
                            <mxPoint x="-800.5" y="1170"/>
                            <mxPoint x="-630.5" y="1170"/>
                            <mxPoint x="-460.5" y="1170"/>
                        </Array>
                    </mxGeometry>
                </mxCell>
                <mxCell id="200" value="" style="edgeStyle=none;html=1;startArrow=none;startFill=0;endArrow=none;endFill=0;" parent="1" source="180" target="199" edge="1">
                    <mxGeometry relative="1" as="geometry"/>
                </mxCell>
                <mxCell id="180" value="Band" style="rounded=1;whiteSpace=wrap;html=1;fillColor=#6a00ff;strokeColor=#3700CC;" parent="1" vertex="1">
                    <mxGeometry x="-860" y="1230" width="120" height="60" as="geometry"/>
                </mxCell>
                <mxCell id="206" value="" style="edgeStyle=none;html=1;startArrow=none;startFill=0;endArrow=none;endFill=0;" parent="1" source="181" target="205" edge="1">
                    <mxGeometry relative="1" as="geometry"/>
                </mxCell>
                <mxCell id="209" style="edgeStyle=none;html=1;entryX=0.5;entryY=0;entryDx=0;entryDy=0;startArrow=none;startFill=0;endArrow=none;endFill=0;" parent="1" source="181" target="208" edge="1">
                    <mxGeometry relative="1" as="geometry"/>
                </mxCell>
                <mxCell id="365" value="M" style="edgeLabel;html=1;align=center;verticalAlign=middle;resizable=0;points=[];" parent="209" connectable="0" vertex="1">
                    <mxGeometry x="-0.6131" y="-2" relative="1" as="geometry">
                        <mxPoint x="12" as="offset"/>
                    </mxGeometry>
                </mxCell>
                <mxCell id="181" value="Solo Performer" style="rounded=1;whiteSpace=wrap;html=1;fillColor=#6a00ff;strokeColor=#3700CC;" parent="1" vertex="1">
                    <mxGeometry x="-520.5" y="1230" width="120" height="60" as="geometry"/>
                </mxCell>
                <mxCell id="184" value="" style="edgeStyle=none;html=1;" parent="1" source="182" target="180" edge="1">
                    <mxGeometry relative="1" as="geometry"/>
                </mxCell>
                <mxCell id="354" value="M" style="edgeLabel;html=1;align=center;verticalAlign=middle;resizable=0;points=[];" parent="184" connectable="0" vertex="1">
                    <mxGeometry x="0.4132" relative="1" as="geometry">
                        <mxPoint x="-2" y="-10" as="offset"/>
                    </mxGeometry>
                </mxCell>
                <mxCell id="189" value="" style="edgeStyle=none;html=1;startArrow=none;startFill=0;endArrow=none;endFill=0;" parent="1" source="182" target="181" edge="1">
                    <mxGeometry relative="1" as="geometry"/>
                </mxCell>
                <mxCell id="355" value="N" style="edgeLabel;html=1;align=center;verticalAlign=middle;resizable=0;points=[];" parent="189" connectable="0" vertex="1">
                    <mxGeometry x="0.1686" relative="1" as="geometry">
                        <mxPoint x="7" y="-10" as="offset"/>
                    </mxGeometry>
                </mxCell>
                <mxCell id="203" value="" style="edgeStyle=none;html=1;startArrow=none;startFill=0;endArrow=none;endFill=0;" parent="1" source="182" target="202" edge="1">
                    <mxGeometry relative="1" as="geometry"/>
                </mxCell>
                <mxCell id="182" value="GroupManber" style="shape=rhombus;double=1;perimeter=rhombusPerimeter;whiteSpace=wrap;html=1;align=center;rounded=1;fillColor=#0050ef;fontColor=#ffffff;strokeColor=#001DBC;" parent="1" vertex="1">
                    <mxGeometry x="-700.5" y="1230" width="140" height="60" as="geometry"/>
                </mxCell>
                <mxCell id="199" value="" style="shape=waypoint;size=6;pointerEvents=1;points=[];fillColor=#6a00ff;resizable=0;rotatable=0;perimeter=centerPerimeter;snapToPoint=1;strokeColor=#3700CC;rounded=1;" parent="1" vertex="1">
                    <mxGeometry x="-920.5" y="1250" width="20" height="20" as="geometry"/>
                </mxCell>
                <mxCell id="201" value="FormationDate" style="text;html=1;align=center;verticalAlign=middle;resizable=0;points=[];autosize=1;strokeColor=none;fillColor=none;" parent="1" vertex="1">
                    <mxGeometry x="-1010" y="1245" width="100" height="30" as="geometry"/>
                </mxCell>
                <mxCell id="202" value="" style="shape=waypoint;size=6;pointerEvents=1;points=[];fillColor=#0050ef;resizable=0;rotatable=0;perimeter=centerPerimeter;snapToPoint=1;strokeColor=#001DBC;fontColor=#ffffff;rounded=1;" parent="1" vertex="1">
                    <mxGeometry x="-640.5" y="1330" width="20" height="20" as="geometry"/>
                </mxCell>
                <mxCell id="204" value="JoinedDate" style="text;html=1;align=center;verticalAlign=middle;resizable=0;points=[];autosize=1;strokeColor=none;fillColor=none;" parent="1" vertex="1">
                    <mxGeometry x="-670.5" y="1350" width="80" height="30" as="geometry"/>
                </mxCell>
                <mxCell id="205" value="" style="shape=waypoint;size=6;pointerEvents=1;points=[];fillColor=#6a00ff;resizable=0;rotatable=0;perimeter=centerPerimeter;snapToPoint=1;strokeColor=#3700CC;rounded=1;" parent="1" vertex="1">
                    <mxGeometry x="-350" y="1250" width="20" height="20" as="geometry"/>
                </mxCell>
                <mxCell id="207" value="BirthDate" style="text;html=1;align=center;verticalAlign=middle;resizable=0;points=[];autosize=1;strokeColor=none;fillColor=none;" parent="1" vertex="1">
                    <mxGeometry x="-330" y="1245" width="70" height="30" as="geometry"/>
                </mxCell>
                <mxCell id="211" value="" style="edgeStyle=none;html=1;startArrow=none;startFill=0;endArrow=none;endFill=0;" parent="1" source="208" target="210" edge="1">
                    <mxGeometry relative="1" as="geometry"/>
                </mxCell>
                <mxCell id="366" value="N" style="edgeLabel;html=1;align=center;verticalAlign=middle;resizable=0;points=[];" parent="211" connectable="0" vertex="1">
                    <mxGeometry x="-0.3849" y="-2" relative="1" as="geometry">
                        <mxPoint x="12" y="14" as="offset"/>
                    </mxGeometry>
                </mxCell>
                <mxCell id="208" value="suonare" style="shape=rhombus;double=1;perimeter=rhombusPerimeter;whiteSpace=wrap;html=1;align=center;rounded=1;fillColor=#0050ef;fontColor=#ffffff;strokeColor=#001DBC;" parent="1" vertex="1">
                    <mxGeometry x="-530.5" y="1335" width="140" height="60" as="geometry"/>
                </mxCell>
                <mxCell id="215" value="" style="edgeStyle=none;html=1;startArrow=none;startFill=0;endArrow=none;endFill=0;" parent="1" source="210" target="214" edge="1">
                    <mxGeometry relative="1" as="geometry"/>
                </mxCell>
                <mxCell id="218" value="" style="edgeStyle=none;html=1;startArrow=none;startFill=0;endArrow=none;endFill=0;" parent="1" source="210" target="217" edge="1">
                    <mxGeometry relative="1" as="geometry"/>
                </mxCell>
                <mxCell id="210" value="Instrument" style="rounded=1;whiteSpace=wrap;html=1;fillColor=#6a00ff;strokeColor=#3700CC;" parent="1" vertex="1">
                    <mxGeometry x="-520.5" y="1430" width="120" height="60" as="geometry"/>
                </mxCell>
                <mxCell id="214" value="" style="shape=waypoint;size=6;pointerEvents=1;points=[];fillColor=#6a00ff;resizable=0;rotatable=0;perimeter=centerPerimeter;snapToPoint=1;strokeColor=#3700CC;rounded=1;" parent="1" vertex="1">
                    <mxGeometry x="-470.5" y="1520" width="20" height="20" as="geometry"/>
                </mxCell>
                <mxCell id="216" value="Name" style="text;html=1;align=center;verticalAlign=middle;resizable=0;points=[];autosize=1;strokeColor=none;fillColor=none;" parent="1" vertex="1">
                    <mxGeometry x="-490.5" y="1530" width="60" height="30" as="geometry"/>
                </mxCell>
                <mxCell id="217" value="" style="shape=waypoint;size=6;pointerEvents=1;points=[];fillColor=#6a00ff;resizable=0;rotatable=0;perimeter=centerPerimeter;snapToPoint=1;strokeColor=#3700CC;rounded=1;" parent="1" vertex="1">
                    <mxGeometry x="-350" y="1450" width="20" height="20" as="geometry"/>
                </mxCell>
                <mxCell id="264" value="InstrumentNumber" style="text;html=1;align=center;verticalAlign=middle;resizable=0;points=[];autosize=1;strokeColor=none;fillColor=none;" parent="1" vertex="1">
                    <mxGeometry x="-340" y="1445" width="120" height="30" as="geometry"/>
                </mxCell>
                <mxCell id="270" style="html=1;startArrow=none;startFill=0;endArrow=none;endFill=0;entryX=0.5;entryY=0;entryDx=0;entryDy=0;" parent="1" target="181" edge="1">
                    <mxGeometry relative="1" as="geometry">
                        <mxPoint x="-460.5" y="1230" as="targetPoint"/>
                        <mxPoint x="-460" y="1230" as="sourcePoint"/>
                    </mxGeometry>
                </mxCell>
                <mxCell id="301" style="edgeStyle=orthogonalEdgeStyle;rounded=0;html=1;endArrow=classic;endFill=1;" parent="1" source="302" edge="1">
                    <mxGeometry relative="1" as="geometry">
                        <mxPoint x="-588.5" y="2020" as="targetPoint"/>
                        <Array as="points">
                            <mxPoint x="-739" y="2080"/>
                            <mxPoint x="-588" y="2080"/>
                        </Array>
                    </mxGeometry>
                </mxCell>
                <mxCell id="302" value="Prenotazione oraria" style="rounded=1;whiteSpace=wrap;html=1;fillColor=#6a00ff;strokeColor=#3700CC;" parent="1" vertex="1">
                    <mxGeometry x="-799.5" y="2110" width="120" height="60" as="geometry"/>
                </mxCell>
                <mxCell id="303" style="edgeStyle=orthogonalEdgeStyle;rounded=0;html=1;entryX=0.5;entryY=1;entryDx=0;entryDy=0;endArrow=classic;endFill=1;" parent="1" source="304" target="300" edge="1">
                    <mxGeometry relative="1" as="geometry"/>
                </mxCell>
                <mxCell id="304" value="Prenotazione a giorni singoli" style="rounded=1;whiteSpace=wrap;html=1;fillColor=#6a00ff;strokeColor=#3700CC;" parent="1" vertex="1">
                    <mxGeometry x="-648.5" y="2110" width="120" height="60" as="geometry"/>
                </mxCell>
                <mxCell id="305" style="edgeStyle=orthogonalEdgeStyle;rounded=0;html=1;endArrow=classic;endFill=1;" parent="1" source="306" edge="1">
                    <mxGeometry relative="1" as="geometry">
                        <mxPoint x="-588.5" y="2020" as="targetPoint"/>
                        <Array as="points">
                            <mxPoint x="-438.5" y="2080"/>
                            <mxPoint x="-588.5" y="2080"/>
                        </Array>
                    </mxGeometry>
                </mxCell>
                <mxCell id="306" value="Prenotazione a pacchetto" style="rounded=1;whiteSpace=wrap;html=1;fillColor=#6a00ff;strokeColor=#3700CC;" parent="1" vertex="1">
                    <mxGeometry x="-498.5" y="2110" width="120" height="60" as="geometry"/>
                </mxCell>
                <mxCell id="307" style="edgeStyle=orthogonalEdgeStyle;rounded=0;html=1;entryX=0.5;entryY=1;entryDx=0;entryDy=0;endArrow=classic;endFill=1;" parent="1" source="308" target="306" edge="1">
                    <mxGeometry relative="1" as="geometry"/>
                </mxCell>
                <mxCell id="308" value="Prenotazione&lt;br&gt;settimanale" style="rounded=1;whiteSpace=wrap;html=1;fillColor=#6a00ff;strokeColor=#3700CC;" parent="1" vertex="1">
                    <mxGeometry x="-618.5" y="2250" width="120" height="60" as="geometry"/>
                </mxCell>
                <mxCell id="309" style="edgeStyle=orthogonalEdgeStyle;rounded=0;html=1;entryX=0.5;entryY=1;entryDx=0;entryDy=0;endArrow=classic;endFill=1;" parent="1" source="310" target="306" edge="1">
                    <mxGeometry relative="1" as="geometry"/>
                </mxCell>
                <mxCell id="310" value="Prenotazione&lt;br&gt;mensile" style="rounded=1;whiteSpace=wrap;html=1;fillColor=#6a00ff;strokeColor=#3700CC;" parent="1" vertex="1">
                    <mxGeometry x="-378.5" y="2250" width="120" height="60" as="geometry"/>
                </mxCell>
                <mxCell id="311" value="Cliente" style="rounded=1;whiteSpace=wrap;html=1;fillColor=#6a00ff;strokeColor=#3700CC;fontColor=#ffffff;" parent="1" vertex="1">
                    <mxGeometry x="-1020" y="1960" width="120" height="60" as="geometry"/>
                </mxCell>
                <mxCell id="312" value="" style="edgeStyle=orthogonalEdgeStyle;html=1;" parent="1" source="314" target="311" edge="1">
                    <mxGeometry relative="1" as="geometry"/>
                </mxCell>
                <mxCell id="313" value="" style="edgeStyle=orthogonalEdgeStyle;html=1;" parent="1" source="314" target="300" edge="1">
                    <mxGeometry relative="1" as="geometry"/>
                </mxCell>
                <mxCell id="314" value="esegue" style="shape=rhombus;double=1;perimeter=rhombusPerimeter;whiteSpace=wrap;html=1;align=center;rounded=1;fillColor=#0050ef;fontColor=#ffffff;strokeColor=#001DBC;" parent="1" vertex="1">
                    <mxGeometry x="-840" y="1960" width="120" height="60" as="geometry"/>
                </mxCell>
                <mxCell id="300" value="Prenotazione" style="rounded=1;whiteSpace=wrap;html=1;fillColor=#6a00ff;strokeColor=#3700CC;" parent="1" vertex="1">
                    <mxGeometry x="-648.5" y="1960" width="120" height="60" as="geometry"/>
                </mxCell>
                <mxCell id="319" style="edgeStyle=orthogonalEdgeStyle;rounded=1;orthogonalLoop=1;jettySize=auto;html=1;entryX=0.5;entryY=1;entryDx=0;entryDy=0;endArrow=none;endFill=0;" parent="1" source="329" target="346" edge="1">
                    <mxGeometry relative="1" as="geometry"/>
                </mxCell>
                <mxCell id="320" style="edgeStyle=none;html=1;exitX=0;exitY=0.5;exitDx=0;exitDy=0;entryX=1;entryY=0.5;entryDx=0;entryDy=0;" parent="1" source="323" target="344" edge="1">
                    <mxGeometry relative="1" as="geometry">
                        <Array as="points">
                            <mxPoint x="608" y="1860"/>
                        </Array>
                    </mxGeometry>
                </mxCell>
                <mxCell id="321" style="edgeStyle=none;html=1;entryX=1;entryY=0.5;entryDx=0;entryDy=0;" parent="1" source="325" target="326" edge="1">
                    <mxGeometry relative="1" as="geometry"/>
                </mxCell>
                <mxCell id="322" value="Contatto" style="rounded=1;whiteSpace=wrap;html=1;fillColor=#6a00ff;strokeColor=#3700CC;" parent="1" vertex="1">
                    <mxGeometry x="848" y="1830" width="120" height="60" as="geometry"/>
                </mxCell>
                <mxCell id="323" value="partecipazione" style="shape=rhombus;double=1;perimeter=rhombusPerimeter;whiteSpace=wrap;html=1;align=center;rounded=1;fillColor=#0050ef;fontColor=#ffffff;strokeColor=#001DBC;" parent="1" vertex="1">
                    <mxGeometry x="648" y="1830" width="140" height="60" as="geometry"/>
                </mxCell>
                <mxCell id="324" style="edgeStyle=orthogonalEdgeStyle;html=1;exitX=0;exitY=0.5;exitDx=0;exitDy=0;entryX=1;entryY=0;entryDx=0;entryDy=0;rounded=1;" parent="1" source="326" target="344" edge="1">
                    <mxGeometry relative="1" as="geometry">
                        <Array as="points">
                            <mxPoint x="588" y="1780"/>
                            <mxPoint x="588" y="1830"/>
                        </Array>
                    </mxGeometry>
                </mxCell>
                <mxCell id="325" value="Tecnico" style="rounded=1;whiteSpace=wrap;html=1;fillColor=#6a00ff;strokeColor=#3700CC;" parent="1" vertex="1">
                    <mxGeometry x="848" y="1750" width="120" height="60" as="geometry"/>
                </mxCell>
                <mxCell id="326" value="partecipazione" style="shape=rhombus;double=1;perimeter=rhombusPerimeter;whiteSpace=wrap;html=1;align=center;rounded=1;fillColor=#0050ef;fontColor=#ffffff;strokeColor=#001DBC;" parent="1" vertex="1">
                    <mxGeometry x="648" y="1750" width="140" height="60" as="geometry"/>
                </mxCell>
                <mxCell id="327" style="edgeStyle=none;html=1;entryX=0;entryY=0.5;entryDx=0;entryDy=0;startArrow=none;startFill=0;endArrow=none;endFill=0;" parent="1" source="329" target="350" edge="1">
                    <mxGeometry relative="1" as="geometry"/>
                </mxCell>
                <mxCell id="328" value="" style="edgeStyle=none;html=1;startArrow=classic;startFill=1;endArrow=none;endFill=0;" parent="1" source="329" target="346" edge="1">
                    <mxGeometry relative="1" as="geometry"/>
                </mxCell>
                <mxCell id="329" value="Produzione" style="rounded=1;whiteSpace=wrap;html=1;fillColor=#6a00ff;strokeColor=#3700CC;" parent="1" vertex="1">
                    <mxGeometry x="408" y="2030" width="120" height="60" as="geometry"/>
                </mxCell>
                <mxCell id="330" style="edgeStyle=none;html=1;entryX=0;entryY=0.5;entryDx=0;entryDy=0;startArrow=classic;startFill=1;endArrow=none;endFill=0;" parent="1" source="333" target="334" edge="1">
                    <mxGeometry relative="1" as="geometry">
                        <Array as="points">
                            <mxPoint x="898" y="2060"/>
                        </Array>
                    </mxGeometry>
                </mxCell>
                <mxCell id="331" style="edgeStyle=none;html=1;entryX=0;entryY=0.5;entryDx=0;entryDy=0;startArrow=classic;startFill=1;endArrow=none;endFill=0;" parent="1" source="333" target="335" edge="1">
                    <mxGeometry relative="1" as="geometry">
                        <Array as="points">
                            <mxPoint x="898" y="2060"/>
                        </Array>
                    </mxGeometry>
                </mxCell>
                <mxCell id="332" style="edgeStyle=none;html=1;entryX=0.974;entryY=0.497;entryDx=0;entryDy=0;entryPerimeter=0;startArrow=classic;startFill=1;endArrow=none;endFill=0;" parent="1" source="333" target="350" edge="1">
                    <mxGeometry relative="1" as="geometry"/>
                </mxCell>
                <mxCell id="333" value="Copie" style="rounded=1;whiteSpace=wrap;html=1;fillColor=#6a00ff;strokeColor=#3700CC;" parent="1" vertex="1">
                    <mxGeometry x="728" y="2030" width="120" height="60" as="geometry"/>
                </mxCell>
                <mxCell id="334" value="Vinili" style="rounded=1;whiteSpace=wrap;html=1;fillColor=#6a00ff;strokeColor=#3700CC;" parent="1" vertex="1">
                    <mxGeometry x="929" y="1975" width="120" height="60" as="geometry"/>
                </mxCell>
                <mxCell id="335" value="Audiocassette" style="rounded=1;whiteSpace=wrap;html=1;fillColor=#6a00ff;strokeColor=#3700CC;" parent="1" vertex="1">
                    <mxGeometry x="929" y="2085" width="120" height="60" as="geometry"/>
                </mxCell>
                <mxCell id="336" style="edgeStyle=orthogonalEdgeStyle;rounded=1;orthogonalLoop=1;jettySize=auto;html=1;entryX=0.5;entryY=1;entryDx=0;entryDy=0;" parent="1" source="337" target="329" edge="1">
                    <mxGeometry relative="1" as="geometry">
                        <Array as="points">
                            <mxPoint x="298" y="2130"/>
                            <mxPoint x="468" y="2130"/>
                        </Array>
                    </mxGeometry>
                </mxCell>
                <mxCell id="337" value="Singolo" style="rounded=1;whiteSpace=wrap;html=1;fillColor=#6a00ff;strokeColor=#3700CC;" parent="1" vertex="1">
                    <mxGeometry x="248" y="2170" width="120" height="60" as="geometry"/>
                </mxCell>
                <mxCell id="338" style="edgeStyle=orthogonalEdgeStyle;rounded=1;orthogonalLoop=1;jettySize=auto;html=1;entryX=0.5;entryY=1;entryDx=0;entryDy=0;" parent="1" source="339" target="329" edge="1">
                    <mxGeometry relative="1" as="geometry">
                        <Array as="points">
                            <mxPoint x="628" y="2130"/>
                            <mxPoint x="468" y="2130"/>
                        </Array>
                    </mxGeometry>
                </mxCell>
                <mxCell id="339" value="Album" style="rounded=1;whiteSpace=wrap;html=1;fillColor=#6a00ff;strokeColor=#3700CC;" parent="1" vertex="1">
                    <mxGeometry x="568" y="2170" width="120" height="60" as="geometry"/>
                </mxCell>
                <mxCell id="340" style="edgeStyle=orthogonalEdgeStyle;rounded=1;orthogonalLoop=1;jettySize=auto;html=1;entryX=0.5;entryY=1;entryDx=0;entryDy=0;" parent="1" source="341" target="329" edge="1">
                    <mxGeometry relative="1" as="geometry">
                        <mxPoint x="468" y="2100" as="targetPoint"/>
                    </mxGeometry>
                </mxCell>
                <mxCell id="341" value="Extended Play" style="rounded=1;whiteSpace=wrap;html=1;fillColor=#6a00ff;strokeColor=#3700CC;" parent="1" vertex="1">
                    <mxGeometry x="408" y="2170" width="120" height="60" as="geometry"/>
                </mxCell>
                <mxCell id="342" style="edgeStyle=orthogonalEdgeStyle;rounded=1;orthogonalLoop=1;jettySize=auto;html=1;entryX=0;entryY=0.5;entryDx=0;entryDy=0;endArrow=none;endFill=0;" parent="1" source="343" target="348" edge="1">
                    <mxGeometry relative="1" as="geometry"/>
                </mxCell>
                <mxCell id="343" value="Artista" style="rounded=1;whiteSpace=wrap;html=1;fillColor=#6a00ff;strokeColor=#3700CC;" parent="1" vertex="1">
                    <mxGeometry x="68" y="1830" width="120" height="60" as="geometry"/>
                </mxCell>
                <mxCell id="344" value="Canzone" style="rounded=1;whiteSpace=wrap;html=1;fillColor=#6a00ff;strokeColor=#3700CC;" parent="1" vertex="1">
                    <mxGeometry x="408" y="1830" width="120" height="60" as="geometry"/>
                </mxCell>
                <mxCell id="345" style="edgeStyle=orthogonalEdgeStyle;rounded=1;orthogonalLoop=1;jettySize=auto;html=1;entryX=0.5;entryY=1;entryDx=0;entryDy=0;endArrow=none;endFill=0;" parent="1" source="346" target="344" edge="1">
                    <mxGeometry relative="1" as="geometry"/>
                </mxCell>
                <mxCell id="346" value="composizione" style="shape=rhombus;double=1;perimeter=rhombusPerimeter;whiteSpace=wrap;html=1;align=center;rounded=1;fillColor=#0050ef;fontColor=#ffffff;strokeColor=#001DBC;" parent="1" vertex="1">
                    <mxGeometry x="398" y="1930" width="140" height="60" as="geometry"/>
                </mxCell>
                <mxCell id="347" style="edgeStyle=orthogonalEdgeStyle;rounded=1;orthogonalLoop=1;jettySize=auto;html=1;entryX=0;entryY=0.5;entryDx=0;entryDy=0;" parent="1" source="348" target="344" edge="1">
                    <mxGeometry relative="1" as="geometry"/>
                </mxCell>
                <mxCell id="348" value="partecipazione" style="shape=rhombus;double=1;perimeter=rhombusPerimeter;whiteSpace=wrap;html=1;align=center;rounded=1;fillColor=#0050ef;fontColor=#ffffff;strokeColor=#001DBC;" parent="1" vertex="1">
                    <mxGeometry x="228" y="1830" width="140" height="60" as="geometry"/>
                </mxCell>
                <mxCell id="349" style="edgeStyle=elbowEdgeStyle;html=1;entryX=1;entryY=0.5;entryDx=0;entryDy=0;rounded=1;" parent="1" source="322" target="323" edge="1">
                    <mxGeometry relative="1" as="geometry"/>
                </mxCell>
                <mxCell id="350" value="ha" style="shape=rhombus;double=1;perimeter=rhombusPerimeter;whiteSpace=wrap;html=1;align=center;rounded=1;fillColor=#0050ef;fontColor=#ffffff;strokeColor=#001DBC;" parent="1" vertex="1">
                    <mxGeometry x="558" y="2030" width="140" height="60" as="geometry"/>
                </mxCell>
                <mxCell id="363" value="(t,e)" style="text;html=1;align=center;verticalAlign=middle;resizable=0;points=[];autosize=1;strokeColor=none;fillColor=none;" parent="1" vertex="1">
                    <mxGeometry x="-637" y="1140" width="40" height="30" as="geometry"/>
                </mxCell>
                <mxCell id="372" value="" style="shape=waypoint;sketch=0;size=6;pointerEvents=1;points=[];fillColor=#6a00ff;resizable=0;rotatable=0;perimeter=centerPerimeter;snapToPoint=1;strokeColor=#3700CC;rounded=1;gradientColor=#FF6666;" parent="1" vertex="1">
                    <mxGeometry x="-640.5" y="1020" width="20" height="20" as="geometry"/>
                </mxCell>
                <mxCell id="374" value="ArtistNumber" style="text;html=1;align=center;verticalAlign=middle;resizable=0;points=[];autosize=1;strokeColor=none;fillColor=none;gradientColor=none;" parent="1" vertex="1">
                    <mxGeometry x="-675.5" y="1000" width="90" height="30" as="geometry"/>
                </mxCell>
                <mxCell id="375" value="" style="shape=waypoint;sketch=0;size=6;pointerEvents=1;points=[];fillColor=#6a00ff;resizable=0;rotatable=0;perimeter=centerPerimeter;snapToPoint=1;strokeColor=#3700CC;rounded=1;" parent="1" vertex="1">
                    <mxGeometry x="-749.5" y="1090" width="20" height="20" as="geometry"/>
                </mxCell>
                <mxCell id="378" value="Type" style="text;html=1;align=center;verticalAlign=middle;resizable=0;points=[];autosize=1;strokeColor=none;fillColor=none;" parent="1" vertex="1">
                    <mxGeometry x="-790" y="1085" width="50" height="30" as="geometry"/>
                </mxCell>
                <mxCell id="379" value="Name" style="text;html=1;align=center;verticalAlign=middle;resizable=0;points=[];autosize=1;strokeColor=none;fillColor=none;" parent="1" vertex="1">
                    <mxGeometry x="-519.5" y="1085" width="60" height="30" as="geometry"/>
                </mxCell>
                <mxCell id="380" value="" style="shape=waypoint;sketch=0;size=6;pointerEvents=1;points=[];fillColor=#6a00ff;resizable=0;rotatable=0;perimeter=centerPerimeter;snapToPoint=1;strokeColor=#3700CC;rounded=1;" parent="1" vertex="1">
                    <mxGeometry x="-529.5" y="1090" width="20" height="20" as="geometry"/>
                </mxCell>
                <mxCell id="383" value="Contesto dell'artista e della band" style="text;strokeColor=none;fillColor=none;html=1;fontSize=24;fontStyle=1;verticalAlign=middle;align=center;" parent="1" vertex="1">
                    <mxGeometry x="-818.25" y="880" width="415.5" height="40" as="geometry"/>
                </mxCell>
                <mxCell id="385" value="Contesto delle prenotazioni" style="text;strokeColor=none;fillColor=none;html=1;fontSize=24;fontStyle=1;verticalAlign=middle;align=center;" parent="1" vertex="1">
                    <mxGeometry x="-812.5" y="1700" width="415.5" height="40" as="geometry"/>
                </mxCell>
                <mxCell id="386" value="Contesto delle Produzioni Musicali" style="text;strokeColor=none;fillColor=none;html=1;fontSize=24;fontStyle=1;verticalAlign=middle;align=center;" parent="1" vertex="1">
                    <mxGeometry x="112.5" y="1690" width="415.5" height="40" as="geometry"/>
                </mxCell>
                <mxCell id="387" value="&lt;font style=&quot;font-size: 33px;&quot;&gt;ツ&lt;/font&gt;" style="text;html=1;align=center;verticalAlign=middle;resizable=0;points=[];autosize=1;strokeColor=none;fillColor=none;" vertex="1" parent="1">
                    <mxGeometry x="1109" width="60" height="50" as="geometry"/>
                </mxCell>
                <mxCell id="390" value="Sala" style="rounded=1;whiteSpace=wrap;html=1;fillColor=#6a00ff;strokeColor=#3700CC;fontColor=#ffffff;" vertex="1" parent="1">
                    <mxGeometry x="-300" y="1960" width="120" height="60" as="geometry"/>
                </mxCell>
                <mxCell id="394" style="edgeStyle=none;html=1;entryX=1;entryY=0.5;entryDx=0;entryDy=0;" edge="1" parent="1" source="393" target="300">
                    <mxGeometry relative="1" as="geometry"/>
                </mxCell>
                <mxCell id="395" value="" style="edgeStyle=none;html=1;endArrow=none;endFill=0;" edge="1" parent="1" source="393" target="390">
                    <mxGeometry relative="1" as="geometry"/>
                </mxCell>
                <mxCell id="393" value="oggetto di" style="shape=rhombus;double=1;perimeter=rhombusPerimeter;whiteSpace=wrap;html=1;align=center;rounded=1;fillColor=#0050ef;fontColor=#ffffff;strokeColor=#001DBC;" vertex="1" parent="1">
                    <mxGeometry x="-470" y="1960" width="120" height="60" as="geometry"/>
                </mxCell>
                <mxCell id="396" value="Metodo &lt;br&gt;Pagamento" style="rounded=1;whiteSpace=wrap;html=1;fillColor=#6a00ff;strokeColor=#3700CC;" vertex="1" parent="1">
                    <mxGeometry x="-740" y="1830" width="120" height="60" as="geometry"/>
                </mxCell>
                <mxCell id="397" value="Stato&lt;br&gt;Pagamento" style="rounded=1;whiteSpace=wrap;html=1;fillColor=#6a00ff;strokeColor=#3700CC;" vertex="1" parent="1">
                    <mxGeometry x="-561" y="1830" width="120" height="60" as="geometry"/>
                </mxCell>
            </root>
        </mxGraphModel>
    </diagram>
</mxfile>